<svg width="24" height="24" viewBox="0 0 24 24" fill="none" xmlns="http://www.w3.org/2000/svg">
<path d="M19.9997 3.99987H17.9997V0.399853C17.9996 0.178951 17.8204 -9.99588e-05 17.5995 4.18676e-08C17.5614 4.18676e-08 17.5235 0.00550008 17.4869 0.0162501L3.88681 4.01627C3.87881 4.01627 3.87281 4.02427 3.86481 4.02707C3.84446 4.03533 3.82476 4.04523 3.80601 4.05668C3.78181 4.06963 3.75906 4.08508 3.73801 4.10268C3.72251 4.11708 3.70806 4.13258 3.69481 4.14908C3.67726 4.17033 3.66186 4.19323 3.64881 4.21748C3.63936 4.23618 3.63131 4.25558 3.62481 4.27548C3.61556 4.30363 3.60961 4.33273 3.60721 4.36228C3.60721 4.37548 3.59961 4.38668 3.59961 4.39988V23.6C3.59961 23.8209 3.77871 24 3.99961 24H19.9997C20.2206 24 20.3997 23.8209 20.3997 23.6V4.39988C20.3997 4.17893 20.2207 3.99987 19.9997 3.99987ZM17.1997 0.934256V3.99987H6.77723L17.1997 0.934256ZM19.5997 23.2H4.39961V4.79988H19.5997V23.2Z" fill="#334153"/>
<path d="M9.20036 6.40041C9.06001 6.40046 8.93001 6.47401 8.85766 6.59431L8.00045 8.02272L7.14325 6.59431C7.02939 6.40501 6.78364 6.34381 6.59429 6.45766C6.47404 6.52996 6.40044 6.66001 6.40039 6.80031V10.0003C6.40039 10.2212 6.57949 10.4003 6.80039 10.4003C7.02129 10.4003 7.2004 10.2212 7.2004 10.0003V8.24432L7.6576 9.00632C7.78735 9.19562 8.04605 9.24392 8.23535 9.11417C8.27765 9.08517 8.3142 9.04862 8.3432 9.00632L8.80041 8.24432V10.0003C8.80041 10.2212 8.97951 10.4003 9.20041 10.4003C9.42131 10.4003 9.60041 10.2212 9.60041 10.0003V6.80031C9.60041 6.57936 9.42126 6.40036 9.20036 6.40041Z" fill="#334153"/>
<path d="M11.6 8.79943C11.8209 8.79943 12 8.62033 12 8.39943C12 8.17852 11.8209 7.99942 11.6 7.99942H10.8V7.19942H11.6C11.8209 7.19942 12 7.02032 12 6.79942C12 6.57851 11.8209 6.39941 11.6 6.39941H10.4C10.1791 6.39941 10 6.57851 10 6.79942V9.99944C10 10.2203 10.1791 10.3994 10.4 10.3994H11.6C11.8209 10.3994 12 10.2203 12 9.99944C12 9.77853 11.8209 9.59943 11.6 9.59943H10.8V8.79943H11.6Z" fill="#334153"/>
<path d="M14.4004 6.4001C14.1795 6.4001 14.0004 6.5792 14.0004 6.8001V8.30571L13.1604 6.6213C13.0642 6.42245 12.8249 6.3393 12.6261 6.4356C12.4866 6.50315 12.3987 6.64515 12.4004 6.8001V10.0001C12.4004 10.221 12.5795 10.4001 12.8004 10.4001C13.0213 10.4001 13.2004 10.221 13.2004 10.0001V8.49451L14.0404 10.1789C14.1367 10.3778 14.3759 10.4609 14.5748 10.3646C14.7143 10.2971 14.8022 10.1551 14.8004 10.0001V6.8001C14.8004 6.57915 14.6214 6.4001 14.4004 6.4001Z" fill="#334153"/>
<path d="M17.1992 6.39941C16.9783 6.39941 16.7992 6.57851 16.7992 6.79942V9.19943C16.7992 9.42033 16.6201 9.59943 16.3992 9.59943C16.1783 9.59943 15.9992 9.42033 15.9992 9.19943V6.79942C15.9992 6.57851 15.8201 6.39941 15.5992 6.39941C15.3783 6.39941 15.1992 6.57851 15.1992 6.79942V9.19943C15.1992 9.86219 15.7365 10.3994 16.3992 10.3994C17.062 10.3994 17.5992 9.86219 17.5992 9.19943V6.79942C17.5992 6.57846 17.4202 6.39941 17.1992 6.39941Z" fill="#334153"/>
<path d="M18.3993 14H5.59922C5.37832 14 5.19922 14.1791 5.19922 14.4C5.19922 14.6209 5.37832 14.8 5.59922 14.8H18.3993C18.6202 14.8 18.7993 14.6209 18.7993 14.4C18.7993 14.1791 18.6203 14 18.3993 14Z" fill="#334153"/>
<path d="M18.3993 16.4004H5.59922C5.37832 16.4004 5.19922 16.5795 5.19922 16.8004C5.19922 17.0213 5.37832 17.2004 5.59922 17.2004H18.3993C18.6202 17.2004 18.7993 17.0213 18.7993 16.8004C18.7993 16.5795 18.6203 16.4004 18.3993 16.4004Z" fill="#334153"/>
<path d="M18.3993 18.7998H5.59922C5.37832 18.7998 5.19922 18.9789 5.19922 19.1998C5.19922 19.4207 5.37832 19.5998 5.59922 19.5998H18.3993C18.6202 19.5998 18.7993 19.4207 18.7993 19.1998C18.7993 18.9789 18.6203 18.7998 18.3993 18.7998Z" fill="#334153"/>
</svg>
